<svg xmlns="http://www.w3.org/2000/svg" viewBox="0 0 750 260" width="750" height="260" font-family="sans-serif"><rect width="750" height="260" fill="#ffffff" rx="8"/><rect x="20" y="20" width="52" height="52" rx="6" fill="#fff2cc" stroke="#999" stroke-width="1"/><text x="46" y="38" text-anchor="middle" font-size="13" font-weight="bold" fill="#333">1</text><text x="46" y="58" text-anchor="middle" font-size="9" fill="#666">Downloads</text><rect x="76" y="20" width="52" height="52" rx="6" fill="#fff2cc" stroke="#999" stroke-width="1"/><text x="102" y="38" text-anchor="middle" font-size="13" font-weight="bold" fill="#333">2</text><text x="102" y="58" text-anchor="middle" font-size="9" fill="#666">Desktop</text><rect x="132" y="20" width="52" height="52" rx="6" fill="#fff2cc" stroke="#999" stroke-width="1"/><text x="158" y="38" text-anchor="middle" font-size="13" font-weight="bold" fill="#333">3</text><text x="158" y="58" text-anchor="middle" font-size="9" fill="#666">Documents</text><rect x="188" y="20" width="52" height="52" rx="6" fill="#fff2cc" stroke="#999" stroke-width="1"/><text x="214" y="38" text-anchor="middle" font-size="13" font-weight="bold" fill="#333">4</text><text x="214" y="58" text-anchor="middle" font-size="9" fill="#666">Project</text><rect x="244" y="20" width="52" height="52" rx="6" fill="#fff2cc" stroke="#999" stroke-width="1"/><text x="270" y="38" text-anchor="middle" font-size="13" font-weight="bold" fill="#333">5</text><text x="270" y="58" text-anchor="middle" font-size="11" fill="#666">Home</text><rect x="384" y="20" width="52" height="52" rx="6" fill="#d9d9d9" stroke="#999" stroke-width="1"/><text x="410" y="38" text-anchor="middle" font-size="13" font-weight="bold" fill="#333">6</text><rect x="440" y="20" width="52" height="52" rx="6" fill="#d9d9d9" stroke="#999" stroke-width="1"/><text x="466" y="38" text-anchor="middle" font-size="13" font-weight="bold" fill="#333">7</text><rect x="496" y="20" width="52" height="52" rx="6" fill="#d9d9d9" stroke="#999" stroke-width="1"/><text x="522" y="38" text-anchor="middle" font-size="13" font-weight="bold" fill="#333">8</text><rect x="552" y="20" width="52" height="52" rx="6" fill="#d9d9d9" stroke="#999" stroke-width="1"/><text x="578" y="38" text-anchor="middle" font-size="13" font-weight="bold" fill="#333">9</text><rect x="608" y="20" width="52" height="52" rx="6" fill="#d9d9d9" stroke="#999" stroke-width="1"/><text x="634" y="38" text-anchor="middle" font-size="13" font-weight="bold" fill="#333">0</text><rect x="48" y="76" width="52" height="52" rx="6" fill="#ffe6cc" stroke="#999" stroke-width="1"/><text x="74" y="94" text-anchor="middle" font-size="13" font-weight="bold" fill="#333">Q</text><text x="74" y="114" text-anchor="middle" font-size="9" fill="#666">Question</text><rect x="104" y="76" width="52" height="52" rx="6" fill="#ffe6cc" stroke="#999" stroke-width="1"/><text x="130" y="94" text-anchor="middle" font-size="13" font-weight="bold" fill="#333">W</text><text x="130" y="109" text-anchor="middle" font-size="9" fill="#666">Web翻訳</text><text x="130" y="120" text-anchor="middle" font-size="9" fill="#666">(Google 翻訳)</text><rect x="160" y="76" width="52" height="52" rx="6" fill="#ffe6cc" stroke="#999" stroke-width="1"/><text x="186" y="94" text-anchor="middle" font-size="13" font-weight="bold" fill="#333">E</text><text x="186" y="114" text-anchor="middle" font-size="11" fill="#666">英語辞典</text><rect x="216" y="76" width="52" height="52" rx="6" fill="#ffe6cc" stroke="#999" stroke-width="1"/><text x="242" y="94" text-anchor="middle" font-size="13" font-weight="bold" fill="#333">R</text><text x="242" y="114" text-anchor="middle" font-size="11" fill="#666">類語辞典</text><rect x="272" y="76" width="52" height="52" rx="6" fill="#f8cecc" stroke="#999" stroke-width="1"/><text x="298" y="94" text-anchor="middle" font-size="13" font-weight="bold" fill="#333">T</text><text x="298" y="114" text-anchor="middle" font-size="9" fill="#666">Terminal</text><rect x="412" y="76" width="52" height="52" rx="6" fill="#dae8fc" stroke="#999" stroke-width="1"/><text x="438" y="94" text-anchor="middle" font-size="13" font-weight="bold" fill="#333">Y</text><text x="438" y="114" text-anchor="middle" font-size="11" fill="#666">Home</text><rect x="468" y="76" width="52" height="52" rx="6" fill="#dae8fc" stroke="#999" stroke-width="1"/><text x="494" y="94" text-anchor="middle" font-size="13" font-weight="bold" fill="#333">U</text><text x="494" y="114" text-anchor="middle" font-size="11" fill="#666">単語←</text><rect x="524" y="76" width="52" height="52" rx="6" fill="#dae8fc" stroke="#999" stroke-width="1"/><text x="550" y="94" text-anchor="middle" font-size="13" font-weight="bold" fill="#333">I</text><text x="550" y="114" text-anchor="middle" font-size="11" fill="#666">単語→</text><rect x="580" y="76" width="52" height="52" rx="6" fill="#dae8fc" stroke="#999" stroke-width="1"/><text x="606" y="94" text-anchor="middle" font-size="13" font-weight="bold" fill="#333">O</text><text x="606" y="114" text-anchor="middle" font-size="11" fill="#666">End</text><rect x="636" y="76" width="52" height="52" rx="6" fill="#d9d9d9" stroke="#999" stroke-width="1"/><text x="662" y="94" text-anchor="middle" font-size="13" font-weight="bold" fill="#333">P</text><rect x="62" y="132" width="52" height="52" rx="6" fill="#f8cecc" stroke="#999" stroke-width="1"/><text x="88" y="150" text-anchor="middle" font-size="13" font-weight="bold" fill="#333">A</text><text x="88" y="170" text-anchor="middle" font-size="11" fill="#666">エディタ</text><rect x="118" y="132" width="52" height="52" rx="6" fill="#f8cecc" stroke="#999" stroke-width="1"/><text x="144" y="150" text-anchor="middle" font-size="13" font-weight="bold" fill="#333">S</text><text x="144" y="165" text-anchor="middle" font-size="9" fill="#666">チャット</text><text x="144" y="176" text-anchor="middle" font-size="9" fill="#666">(Slack)</text><rect x="174" y="132" width="52" height="52" rx="6" fill="#f8cecc" stroke="#999" stroke-width="1"/><text x="200" y="150" text-anchor="middle" font-size="13" font-weight="bold" fill="#333">D</text><text x="200" y="170" text-anchor="middle" font-size="9" fill="#666">Document</text><rect x="230" y="132" width="52" height="52" rx="6" fill="#f8cecc" stroke="#999" stroke-width="1"/><text x="256" y="150" text-anchor="middle" font-size="13" font-weight="bold" fill="#333">F</text><text x="256" y="165" text-anchor="middle" font-size="9" fill="#666">ブラウザ</text><text x="256" y="176" text-anchor="middle" font-size="9" fill="#666">(Firefox)</text><rect x="286" y="132" width="52" height="52" rx="6" fill="#ffe6cc" stroke="#999" stroke-width="1"/><text x="312" y="150" text-anchor="middle" font-size="13" font-weight="bold" fill="#333">G</text><text x="312" y="170" text-anchor="middle" font-size="11" fill="#666">Google</text><rect x="426" y="132" width="52" height="52" rx="6" fill="#dae8fc" stroke="#999" stroke-width="1"/><text x="452" y="150" text-anchor="middle" font-size="13" font-weight="bold" fill="#333">H</text><text x="452" y="170" text-anchor="middle" font-size="11" fill="#666">←</text><rect x="482" y="132" width="52" height="52" rx="6" fill="#dae8fc" stroke="#999" stroke-width="1"/><text x="508" y="150" text-anchor="middle" font-size="13" font-weight="bold" fill="#333">J</text><text x="508" y="170" text-anchor="middle" font-size="11" fill="#666">↓</text><rect x="538" y="132" width="52" height="52" rx="6" fill="#dae8fc" stroke="#999" stroke-width="1"/><text x="564" y="150" text-anchor="middle" font-size="13" font-weight="bold" fill="#333">K</text><text x="564" y="170" text-anchor="middle" font-size="11" fill="#666">↑</text><rect x="594" y="132" width="52" height="52" rx="6" fill="#dae8fc" stroke="#999" stroke-width="1"/><text x="620" y="150" text-anchor="middle" font-size="13" font-weight="bold" fill="#333">L</text><text x="620" y="170" text-anchor="middle" font-size="11" fill="#666">→</text><rect x="650" y="132" width="52" height="52" rx="6" fill="#dae8fc" stroke="#999" stroke-width="1"/><text x="676" y="150" text-anchor="middle" font-size="13" font-weight="bold" fill="#333">;</text><text x="676" y="170" text-anchor="middle" font-size="11" fill="#666">Esc</text><rect x="90" y="188" width="52" height="52" rx="6" fill="#e1d5e7" stroke="#999" stroke-width="1"/><text x="116" y="206" text-anchor="middle" font-size="13" font-weight="bold" fill="#333">Z</text><text x="116" y="226" text-anchor="middle" font-size="11" fill="#666">位置</text><rect x="146" y="188" width="52" height="52" rx="6" fill="#e1d5e7" stroke="#999" stroke-width="1"/><text x="172" y="206" text-anchor="middle" font-size="13" font-weight="bold" fill="#333">X</text><text x="172" y="226" text-anchor="middle" font-size="11" fill="#666">除去</text><rect x="202" y="188" width="52" height="52" rx="6" fill="#e1d5e7" stroke="#999" stroke-width="1"/><text x="228" y="206" text-anchor="middle" font-size="13" font-weight="bold" fill="#333">C</text><text x="228" y="226" text-anchor="middle" font-size="11" fill="#666">入力</text><rect x="258" y="188" width="52" height="52" rx="6" fill="#e1d5e7" stroke="#999" stroke-width="1"/><text x="284" y="206" text-anchor="middle" font-size="13" font-weight="bold" fill="#333">V</text><text x="284" y="226" text-anchor="middle" font-size="11" fill="#666">付与</text><rect x="314" y="188" width="52" height="52" rx="6" fill="#f5f5f5" stroke="#999" stroke-width="1"/><text x="340" y="206" text-anchor="middle" font-size="13" font-weight="bold" fill="#333">B</text><rect x="454" y="188" width="52" height="52" rx="6" fill="#dae8fc" stroke="#999" stroke-width="1"/><text x="480" y="206" text-anchor="middle" font-size="13" font-weight="bold" fill="#333">N</text><text x="480" y="226" text-anchor="middle" font-size="11" fill="#666">BS</text><rect x="510" y="188" width="52" height="52" rx="6" fill="#dae8fc" stroke="#999" stroke-width="1"/><text x="536" y="206" text-anchor="middle" font-size="13" font-weight="bold" fill="#333">M</text><text x="536" y="226" text-anchor="middle" font-size="11" fill="#666">Del</text><rect x="566" y="188" width="52" height="52" rx="6" fill="#dae8fc" stroke="#999" stroke-width="1"/><text x="592" y="206" text-anchor="middle" font-size="13" font-weight="bold" fill="#333">,</text><text x="592" y="226" text-anchor="middle" font-size="11" fill="#666">、</text><rect x="622" y="188" width="52" height="52" rx="6" fill="#dae8fc" stroke="#999" stroke-width="1"/><text x="648" y="206" text-anchor="middle" font-size="13" font-weight="bold" fill="#333">.</text><text x="648" y="226" text-anchor="middle" font-size="11" fill="#666">。</text><rect x="678" y="188" width="52" height="52" rx="6" fill="#d9d9d9" stroke="#999" stroke-width="1"/><text x="704" y="206" text-anchor="middle" font-size="13" font-weight="bold" fill="#333">/</text></svg>